# AST/ASF file generated using VICON BodyLanguage
# -----------------------------------------------
:version 1.10
:name VICON
:units
  mass 1.0
  length 0.45
  angle deg
:documentation
   .ast/.asf automatically generated from VICON data using
   VICON BodyBuilder and BodyLanguage model FoxedUp or BRILLIANT.MOD
:root
   order TX TY TZ RX RY RZ
   axis XYZ
   position 0 0 0  
   orientation 0 0 0 
:bonedata
  begin
     id 1 
     name lhipjoint
     direction 0.537252 -0.787203 0.302774 
     length 2.29576 
     axis 0 0 0  XYZ
  end
  begin
     id 2 
     name lfemur
     direction 0.34202 -0.939693 0  
     length 7.31114  
     axis 0 0 20  XYZ
    dof rx ry rz
    limits (-160.0 20.0)
           (-70.0 70.0)
           (-60.0 70.0)
  end
  begin
     id 3 
     name ltibia
     direction 0.34202 -0.939693 0   
     length 8.36008   
     axis 0 0 20   XYZ
    dof rx
    limits (-10.0 170.0)
  end
  begin
     id 4 
     name lfoot
     direction 0.0969116 -0.266263 0.959016   
     length 2.16704   
     axis -90 7.62852e-016 20   XYZ
    dof rx rz
    limits (-45.0 90.0)
           (-70.0 20.0)
  end
  begin
     id 5 
     name ltoes
     direction 1.53563e-011 -4.21779e-011 1   
     length 1.08338   
     axis -90 7.62852e-016 20   XYZ
    dof rx
    limits (-90.0 20.0)
  end
  begin
     id 6 
     name rhipjoint
     direction -0.588228 -0.754791 0.290308   
     length 2.39434  
     axis 0 0 0  XYZ 
  end
  begin
     id 7 
     name rfemur
     direction -0.34202 -0.939693 0   
     length 7.45207   
     axis 0 0 -20   XYZ
    dof rx ry rz
    limits (-160.0 20.0)
           (-70.0 70.0)
           (-70.0 60.0)
  end
  begin
     id 8 
     name rtibia
     direction -0.34202 -0.939693 0   
     length 8.03565   
     axis 0 0 -20   XYZ
    dof rx
    limits (-10.0 170.0)
 end
 begin
     id 9 
     name rfoot
     direction -0.107009 -0.294004 0.949795   
     length 2.11509  
     axis -90 -7.62852e-016 -20   XYZ
    dof rx rz
    limits (-45.0 90.0)
           (-20.0 70.0)
  end
  begin
     id 10 
     name rtoes
     direction -1.53533e-011 -4.22004e-011 1   
     length 1.05493   
     axis -90 -7.62852e-016 -20   XYZ
    dof rx
    limits (-90.0 20.0)
  end
  begin
     id 11 
     name lowerback
     direction -0.0115208 0.997969 -0.0626515   
     length 2.03153   
     axis 0 0 0   XYZ
    dof rx ry rz
    limits (-20.0 45.0)
           (-30.0 30.0)
           (-30.0 30.0)
  end
  begin
     id 12 
     name upperback
     direction -0.00423475 0.999974 -0.00583614   
     length 2.03619   
     axis 0 0 0   XYZ
    dof rx ry rz
    limits (-20.0 45.0)
           (-30.0 30.0)
           (-30.0 30.0)
  end
  begin
     id 13 
     name thorax
     direction 0.00289429 0.999728 0.0231573   
     length 2.03921   
     axis 0 0 0   XYZ
    dof rx ry rz
    limits (-20.0 45.0)
           (-30.0 30.0)
           (-30.0 30.0)
  end
  begin
     id 14 
     name lowerneck
     direction 0.0188995 0.987777 0.154721   
     length 1.78836   
     axis 0 0 0   XYZ
    dof rx ry rz
    limits (-20.0 45.0)
           (-30.0 30.0)
           (-30.0 30.0)
  end
  begin
     id 15 
     name upperneck
     direction -0.00612612 0.992995 -0.118   
     length 1.81789   
     axis 0 0 0   XYZ
    dof rx ry rz
    limits (-20.0 45.0)
           (-30.0 30.0)
           (-30.0 30.0)
  end
  begin
     id 16
     name head
     direction -0.00420226 0.998397 -0.0564482  
     length 1.82234  
     axis 0 0 0   XYZ
    dof rx ry rz
    limits (-20.0 45.0)
           (-30.0 30.0)
           (-30.0 30.0)
  end
  begin
     id 17 
     name lclavicle
     direction 0.916488 0.396539 0.0529676  
     length 3.51732  
     axis 0 0 0   XYZ
    dof ry rz
    limits (-20.0 10.0)
           (0.0 20.0)
  end
  begin
     id 18 
     name lhumerus
     direction 1 -4.4896e-011 8.36962e-028   
     length 5.45077   
     axis 180 -30 -90   XYZ
    dof rx ry rz
    limits (-60.0 90.0)
           (-90.0 90.0)
           (-90.0 90.0)
  end
  begin
     id 19
     name lradius
     direction 1 -4.48962e-011 3.01407e-027   
     length 3.05488   
     axis 180 -30 -90   XYZ
    dof rx
    limits (-10.0 170.0)
  end
  begin
     id 20
     name lwrist
     direction 1 -4.49002e-011 4.72961e-027   
     length 1.52744   
     axis -2.72261e-015 90 90   XYZ
    dof ry
    limits (-180.0 0.0)
 end
  begin
     id 21 
     name lhand
     direction 1 -4.4899e-011 9.45681e-027   
     length 0.638818   
     axis -6.0311e-015 90 90   XYZ
    dof rx rz
    limits (-90.0 90.0)
           (-45.0 45.0)
  end
  begin
     id 22 
     name lfingers
     direction 1 -4.48871e-011 1.88632e-026   
     length 0.515032   
     axis -1.20625e-014 90 90   XYZ
    dof rx
    limits (0.0 90.0)
  end
  begin
     id 23
     name lthumb
     direction 0.707107 -6.34964e-011 0.707107   
     length 0.739485   
     axis -90 45 6.32835e-014   XYZ
    dof rx rz
    limits (-45.0 45.0)
           (-45.0 45.0)
  end
  begin
     id 24 
     name rclavicle
     direction -0.949427 0.303202 0.0815894   
     length 3.76167  
     axis 0 0 0   XYZ 
    dof ry rz
    limits (-10.0 20.0)
           (-20.0 0.0)
  end
  begin
     id 25 
     name rhumerus
     direction -1 -4.48971e-011 -6.43969e-018  
     length 4.88702   
     axis 180 30 90   XYZ
    dof rx ry rz
    limits (-90.0 60.0)
           (-90.0 90.0)
           (-90.0 90.0)
  end
  begin
     id 26 
     name rradius
     direction -1 -4.48987e-011 5.46662e-027   
     length 3.22603   
     axis 180 30 90   XYZ
    dof rx
    limits (-10.0 170.0)
  end
  begin
     id 27 
     name rwrist
     direction -1 -4.48956e-011 4.72476e-027   
     length 1.61302   
     axis -2.72261e-015 -90 -90   XYZ
    dof ry
    limits (-180.0 0.0)
  end
  begin
     id 28
     name rhand
     direction -1 -4.4889e-011 9.43571e-027   
     length 0.716293   
     axis -6.0311e-015 -90 -90   XYZ
    dof rx rz
    limits (-90.0 90.0)
           (-45.0 45.0)
  end
  begin
     id 29
     name rfingers
     direction -1 -4.48887e-011 1.88701e-026   
     length 0.577494   
     axis -1.20625e-014 -90 -90   XYZ
    dof rx
    limits (0.0 90.0)
  end
  begin
     id 30
     name rthumb
     direction -0.707107 -6.34825e-011 0.707107   
     length 0.829169   
     axis -90 -45 -6.32835e-014   XYZ
    dof rx rz
    limits (-45.0 45.0)
           (-45.0 45.0)
  end
:hierarchy
  begin
    root lhipjoint rhipjoint lowerback
    lhipjoint lfemur
    lfemur ltibia
    ltibia lfoot
    lfoot ltoes
    rhipjoint rfemur
    rfemur rtibia
    rtibia rfoot
    rfoot rtoes
    lowerback upperback
    upperback thorax
    thorax lowerneck lclavicle rclavicle
    lowerneck upperneck
    upperneck head
    lclavicle lhumerus
    lhumerus lradius
    lradius lwrist
    lwrist lhand lthumb
    lhand lfingers
    rclavicle rhumerus
    rhumerus rradius
    rradius rwrist
    rwrist rhand rthumb
    rhand rfingers
  end

#!OML:ASF F:\VICON\USERDATA\INSTALL\rory3\rory3.ASF
:FULLY-SPECIFIED
:DEGREES
717
root 1.7883 18.4452 0.310956 18.0774 93.5032 9.07652
lowerback -10.7021 0.449356 3.47945
upperback -2.22033 0.29264 -0.14719
thorax 3.69847 0.213388 -2.07158
lowerneck -9.64617 10.2728 11.5423
upperneck 32.9717 18.8306 -11.821
head 15.5506 8.77882 -3.475
rclavicle 9.1076e-015 -4.87022e-015
rhumerus -31.5852 -11.8123 -82.1598
rradius 39.6295
rwrist -155.85
rhand -23.2064 -8.94436
rfingers 7.12502
rthumb 3.24377 -38.8994
lclavicle 9.1076e-015 -4.87022e-015
lhumerus -36.1682 -15.5153 91.1737
lradius 36.9751
lwrist 14.9212
lhand -10.3491 27.3695
lfingers 7.12502
lthumb 15.6474 56.7567
rfemur -1.63925 -13.8423 18.7099
rtibia 1.40928
rfoot -7.94391 1.21395
rtoes -16.1198
lfemur -11.1145 7.42522 -15.8796
ltibia 19.1828
lfoot -16.0316 -3.99875
ltoes -27.7412
718
root 1.78488 18.446 0.314825 16.1384 93.575 7.11095
lowerback -10.7409 0.460262 3.44506
upperback -2.16084 0.310077 -0.235449
thorax 3.78346 0.223372 -2.14168
lowerneck -9.59987 10.3462 11.5739
upperneck 33.124 19.0014 -11.8067
head 15.6466 8.86116 -3.44179
rclavicle 9.67503e-015 3.77691e-015
rhumerus -31.5324 -11.9881 -82.15
rradius 39.5888
rwrist -155.757
rhand -23.254 -8.9641
rfingers 7.12502
rthumb 3.19782 -38.9199
lclavicle 9.67503e-015 3.77691e-015
lhumerus -36.0463 -15.2402 90.9643
lradius 37.0229
lwrist 14.775
lhand -10.2458 27.2907
lfingers 7.12502
lthumb 15.7469 56.6701
rfemur -1.82268 -13.9429 18.6376
rtibia 1.69616
rfoot -8.09768 1.2662
rtoes -15.8279
lfemur -11.1719 7.36165 -15.9823
ltibia 19.1977
lfoot -15.988 -4.00013
ltoes -28.1093
719
root 1.78362 18.444 0.321294 16.3944 93.6275 7.40315
lowerback -10.7351 0.524928 3.49612
upperback -2.08346 0.38799 -0.271679
thorax 3.8665 0.264037 -2.19737
lowerneck -9.75385 10.4306 11.5522
upperneck 33.5523 19.2002 -11.637
head 15.9017 8.95315 -3.3192
rclavicle 7.9139e-015 5.96354e-015
rhumerus -31.4863 -12.0596 -82.0792
rradius 39.494
rwrist -155.956
rhand -23.0831 -9.04068
rfingers 7.12502
rthumb 3.36287 -38.9939
lclavicle 7.9139e-015 5.96354e-015
lhumerus -35.9359 -15.0101 90.8036
lradius 37.0627
lwrist 14.5533
lhand -10.0547 27.0903
lfingers 7.12502
lthumb 15.9309 56.4551
rfemur -1.94581 -13.9804 18.7061
rtibia 2.00534
rfoot -8.31827 1.29272
rtoes -16.1343
lfemur -11.1482 7.38697 -15.9248
ltibia 19.2141
lfoot -15.9777 -4.03215
ltoes -28.5858
720
root 1.78098 18.4443 0.330939 17.1835 93.7226 8.20204
lowerback -10.7179 0.575148 3.54365
upperback -2.0393 0.44841 -0.287348
thorax 3.90748 0.295274 -2.23208
lowerneck -9.72871 10.4674 11.5596
upperneck 33.7947 19.3297 -11.5756
head 16.032 9.02018 -3.26998
rclavicle 9.33589e-015 -1.78906e-015
rhumerus -31.469 -12.1625 -82.0103
rradius 39.411
rwrist -156.075
rhand -22.8967 -9.15135
rfingers 7.12502
rthumb 3.54287 -39.1017
lclavicle 9.33589e-015 -1.78906e-015
lhumerus -35.9275 -14.9486 90.7235
lradius 37.1646
lwrist 14.6662
lhand -10.2302 26.7701
lfingers 7.12502
lthumb 15.762 56.1483
rfemur -2.07763 -14.0479 18.8438
rtibia 2.26001
rfoot -8.5096 1.31061
rtoes -15.9834
lfemur -11.1833 7.38534 -15.8087
ltibia 19.2239
lfoot -15.95 -4.09936
ltoes -28.7423
721
root 1.77817 18.4452 0.337856 17.8585 93.8729 8.86046
lowerback -10.7178 0.612516 3.64626
upperback -2.0122 0.486221 -0.310265
thorax 3.93908 0.31594 -2.30854
lowerneck -9.59074 10.4749 11.5436
upperneck 33.8863 19.3953 -11.5429
head 16.0498 9.06167 -3.24864
rclavicle -2.84938e-015 -1.09332e-015
rhumerus -31.5154 -12.2239 -81.929
rradius 39.4707
rwrist -156.136
rhand -22.9812 -9.16847
rfingers 7.12502
rthumb 3.46129 -39.1201
lclavicle -2.84938e-015 -1.09332e-015
lhumerus -35.8771 -14.7819 90.6129
lradius 37.1768
lwrist 14.627
lhand -10.344 26.6565
lfingers 7.12502
lthumb 15.6524 56.0433
rfemur -2.25768 -14.1705 18.9866
rtibia 2.58029
rfoot -8.80394 1.35043
rtoes -14.7615
lfemur -11.238 7.37989 -15.7063
ltibia 19.2148
lfoot -15.9115 -4.16119
ltoes -28.8206
722
root 1.77508 18.4447 0.343927 16.9644 94.0049 7.94305
lowerback -10.7023 0.616225 3.619
upperback -1.98451 0.495009 -0.348229
thorax 3.9602 0.320482 -2.33157
lowerneck -9.48335 10.4944 11.5767
upperneck 33.983 19.5047 -11.5954
head 16.1059 9.11653 -3.25951
rclavicle 1.20047e-015 -7.10655e-015
rhumerus -31.5516 -12.4616 -81.7945
rradius 39.5178
rwrist -156.027
rhand -23.1367 -9.2168
rfingers 7.12502
rthumb 3.31106 -39.1708
lclavicle 1.20047e-015 -7.10655e-015
lhumerus -35.8483 -14.6164 90.5152
lradius 37.2048
lwrist 14.5961
lhand -10.2885 26.8456
lfingers 7.12502
lthumb 15.7058 56.2282
rfemur -2.52317 -14.3068 19.0161
rtibia 3.02492
rfoot -9.09065 1.39324
rtoes -14.3454
lfemur -11.2723 7.381 -15.7223
ltibia 19.1692
lfoot -15.8758 -4.30336
ltoes -28.7325
723
root 1.77313 18.4436 0.349614 14.8632 94.0876 5.83165
lowerback -10.6983 0.609669 3.47873
upperback -1.91903 0.501645 -0.409393
thorax 4.02644 0.323441 -2.31523
lowerneck -9.41908 10.5513 11.5526
upperneck 34.0385 19.6369 -11.5863
head 16.1377 9.17558 -3.22717
rclavicle -9.90429e-016 -5.06901e-015
rhumerus -31.5305 -12.5726 -81.7124
rradius 39.6004
rwrist -156.038
rhand -23.211 -9.1527
rfingers 7.12502
rthumb 3.23938 -39.1078
lclavicle -9.90429e-016 -5.06901e-015
lhumerus -35.8604 -14.4697 90.3953
lradius 37.3542
lwrist 14.6285
lhand -10.301 26.8687
lfingers 7.12502
lthumb 15.6938 56.2523
rfemur -2.79281 -14.4197 18.9259
rtibia 3.5155
rfoot -9.31323 1.45963
rtoes -14.5792
lfemur -11.2695 7.31935 -15.8445
ltibia 19.1094
lfoot -15.8531 -4.34513
ltoes -28.9068
724
root 1.76965 18.4432 0.356216 13.8637 94.188 4.86886
lowerback -10.6113 0.605938 3.41853
upperback -1.84439 0.504558 -0.452404
thorax 4.05644 0.324617 -2.32599
lowerneck -9.30668 10.6462 11.471
upperneck 34.0138 19.7862 -11.4991
head 16.0992 9.24476 -3.15147
rclavicle 8.30974e-015 9.93923e-017
rhumerus -31.4784 -12.6461 -81.6535
rradius 39.6611
rwrist -155.999
rhand -23.223 -9.12649
rfingers 7.12502
rthumb 3.22778 -39.0818
lclavicle 8.30974e-015 9.93923e-017
lhumerus -35.8917 -14.3393 90.2855
lradius 37.5556
lwrist 14.6826
lhand -10.314 27.1259
lfingers 7.12502
lthumb 15.6812 56.5105
rfemur -3.03289 -14.5236 18.9187
rtibia 4.04261
rfoot -9.56018 1.53072
rtoes -14.8522
lfemur -11.2214 7.22465 -15.8609
ltibia 19.0427
lfoot -15.8031 -4.45409
ltoes -28.6409
725
root 1.76266 18.4431 0.364437 13.758 94.2998 4.78591
lowerback -10.467 0.629035 3.41634
upperback -1.79667 0.539147 -0.483719
thorax 4.02892 0.341067 -2.35316
lowerneck -9.16434 10.6877 11.4724
upperneck 33.9613 19.8798 -11.5297
head 16.0604 9.29185 -3.1526
rclavicle -7.54411e-015 -1.09332e-015
rhumerus -31.4623 -12.6763 -81.5912
rradius 39.7475
rwrist -156.031
rhand -23.2218 -9.1717
rfingers 7.12502
rthumb 3.22886 -39.127
lclavicle -7.54411e-015 -1.09332e-015
lhumerus -35.8421 -14.1254 90.1539
lradius 37.5945
lwrist 14.5962
lhand -10.2265 27.2095
lfingers 7.12502
lthumb 15.7655 56.5874
rfemur -3.3018 -14.6204 19.0019
rtibia 4.54887
rfoot -9.7831 1.58858
rtoes -14.6216
lfemur -11.2136 7.20047 -15.8086
ltibia 18.9906
lfoot -15.7496 -4.54935
ltoes -28.5952
